<?xml version="1.0" standalone="no"?>
<!DOCTYPE svg PUBLIC "-//W3C//DTD SVG 20010904//EN"
 "http://www.w3.org/TR/2001/REC-SVG-20010904/DTD/svg10.dtd">
<svg version="1.0" xmlns="http://www.w3.org/2000/svg"
 width="841.000000pt" height="841.000000pt" viewBox="0 0 841.000000 841.000000"
 preserveAspectRatio="xMidYMid meet">
<metadata>
Created by potrace 1.11, written by Peter Selinger 2001-2013
</metadata>
<g transform="translate(0.000000,841.000000) scale(0.100000,-0.100000)"
fill="#000000" stroke="none">
<path d="M1033 4710 l0 -70 89 0 88 0 0 70 0 70 -88 0 -89 0 0 -70z"/>
<path d="M2884 4400 l1 -380 87 0 88 0 0 380 0 380 -88 0 -88 0 0 -380z"/>
<path d="M5934 4710 l0 -70 88 0 88 0 0 70 0 70 -88 0 -88 0 0 -70z"/>
<path d="M160 4740 c0 -9 20 -66 45 -125 7 -16 59 -157 116 -312 l104 -283
111 0 c97 0 113 2 119 18 8 20 193 518 236 635 l28 78 -95 -3 -96 -3 -92 -257
c-50 -141 -94 -260 -97 -262 -3 -3 -48 113 -100 259 l-94 265 -92 0 c-54 0
-93 -4 -93 -10z"/>
<path d="M3682 4385 l0 -367 177 3 c246 3 327 25 412 110 65 65 92 136 92 244
1 50 -5 109 -11 132 -18 61 -72 133 -126 170 -81 55 -129 65 -348 70 l-196 5
0 -367z m348 212 c90 -24 142 -102 141 -213 -1 -150 -83 -223 -248 -224 l-53
0 0 226 0 225 63 -2 c34 -1 78 -7 97 -12z"/>
<path d="M1700 4575 c-19 -9 -49 -27 -67 -41 l-33 -25 0 30 0 31 -88 0 -88 0
0 -275 0 -275 88 0 88 0 -1 155 c0 178 9 223 52 259 38 33 80 33 116 2 l28
-24 2 -184 c1 -100 2 -189 2 -195 1 -10 25 -13 89 -13 l87 0 -1 208 c-1 188
-3 211 -23 257 -29 66 -74 96 -155 102 -41 2 -72 -2 -96 -12z"/>
<path d="M4725 4580 c-93 -23 -158 -77 -191 -161 -40 -98 -19 -246 44 -316 58
-64 159 -98 271 -90 87 6 100 9 170 34 29 10 51 24 52 33 1 8 2 38 3 67 l1 51
-32 -14 c-18 -8 -49 -21 -69 -30 -20 -8 -67 -18 -103 -21 -89 -7 -141 17 -165
77 -9 22 -16 43 -16 45 0 3 93 5 206 5 l207 0 -6 71 c-7 87 -35 147 -90 194
-65 56 -185 80 -282 55z m144 -124 c25 -13 51 -52 51 -76 0 -6 -47 -10 -110
-10 -99 0 -110 2 -110 18 0 61 102 102 169 68z"/>
<path d="M5371 4575 c-86 -27 -130 -99 -116 -191 13 -87 67 -122 218 -144 38
-6 78 -15 88 -21 28 -15 21 -60 -11 -77 -34 -18 -161 -9 -235 17 l-56 20 3
-66 c3 -64 4 -67 33 -75 57 -16 120 -23 215 -23 162 1 235 54 234 170 0 110
-50 153 -205 175 -130 19 -159 41 -113 87 24 24 30 25 97 20 40 -3 98 -14 130
-25 l58 -21 -3 66 c-3 73 2 68 -88 89 -54 13 -206 12 -249 -1z"/>
<path d="M6412 4559 c-26 -15 -56 -40 -68 -55 -66 -91 -77 -250 -24 -354 41
-80 98 -120 181 -127 49 -5 67 -2 113 21 30 15 57 33 60 41 11 29 23 15 21
-24 -4 -53 -31 -106 -63 -121 -54 -25 -141 -24 -214 3 l-68 25 0 -69 0 -68 43
-13 c23 -7 93 -13 157 -13 103 0 121 3 170 26 96 45 138 106 149 214 3 33 5
165 3 293 l-2 232 -89 0 -88 0 2 -30 c2 -36 -5 -38 -31 -9 -55 63 -170 75
-252 28z m225 -116 c80 -53 75 -237 -8 -281 -28 -15 -93 -10 -116 10 -45 37
-59 160 -25 226 31 60 96 80 149 45z"/>
<path d="M7370 4574 c-19 -8 -49 -26 -67 -40 l-33 -25 0 31 0 31 -87 -3 -88
-3 -1 -272 0 -273 88 0 88 0 0 158 c0 183 8 222 54 257 41 31 77 32 110 3 32
-28 34 -47 35 -256 l1 -163 87 3 88 3 -1 195 c-2 215 -10 263 -54 313 -47 54
-147 73 -220 41z"/>
<path d="M7940 4574 c-74 -23 -106 -60 -116 -133 -8 -56 11 -115 47 -145 36
-31 85 -46 197 -60 58 -7 82 -22 82 -50 0 -38 -26 -51 -109 -52 -54 -1 -95 5
-143 21 l-68 22 0 -63 0 -63 58 -18 c39 -12 93 -17 172 -18 104 0 120 2 165
25 85 44 116 141 73 235 -16 35 -97 72 -188 86 -109 16 -130 26 -130 59 0 50
80 63 199 34 36 -9 72 -21 79 -27 7 -5 14 -8 17 -5 9 8 8 119 -1 127 -17 16
-149 40 -219 39 -38 0 -90 -7 -115 -14z"/>
<path d="M1034 4295 l0 -275 88 0 88 0 0 275 0 275 -88 0 -88 0 0 -275z"/>
<path d="M2162 4453 c209 -490 196 -456 182 -485 -19 -36 -43 -48 -98 -48
l-46 0 0 -60 0 -60 73 0 c87 0 143 23 180 72 14 18 47 88 72 153 25 66 49 129
54 140 15 34 138 359 146 383 7 23 6 23 -81 20 l-87 -3 -61 -183 -61 -182 -16
37 c-9 21 -42 104 -74 186 l-58 147 -87 0 -88 0 50 -117z"/>
<path d="M5939 4568 c-1 -2 -3 -126 -4 -275 l-2 -273 89 0 88 0 0 275 0 275
-85 0 c-47 0 -86 -1 -86 -2z"/>
<path d="M2490 3666 l0 -76 44 0 c58 0 88 24 89 73 1 49 -20 69 -82 75 l-51 5
0 -77z m90 23 c9 -21 10 -36 4 -47 -13 -21 -41 -38 -49 -30 -8 8 -13 96 -7
103 15 15 41 1 52 -26z"/>
<path d="M3067 3734 c-9 -10 2 -24 19 -24 8 0 14 7 14 15 0 15 -21 21 -33 9z"/>
<path d="M3689 3739 c-5 -24 -2 -199 4 -199 8 0 9 17 9 123 0 37 -2 71 -6 74
-3 4 -6 4 -7 2z"/>
<path d="M3910 3665 c0 -66 2 -75 19 -75 16 0 18 7 15 53 l-3 52 20 -37 c11
-21 24 -38 30 -38 5 0 17 16 25 35 8 19 16 35 17 35 2 0 3 -21 3 -47 -1 -38 3
-48 17 -51 15 -3 17 6 17 72 0 74 -1 76 -24 76 -19 0 -28 -8 -37 -35 -14 -38
-32 -34 -43 10 -5 18 -13 25 -31 25 -24 0 -25 -2 -25 -75z"/>
<path d="M4349 3738 c-1 -5 -1 -93 0 -120 1 -34 31 -39 31 -6 l0 21 23 -21
c13 -12 32 -22 42 -22 16 0 15 3 -8 28 l-27 28 27 27 c26 26 26 27 6 27 -11 0
-26 -7 -33 -15 -18 -22 -32 -18 -30 8 3 38 1 47 -15 47 -8 0 -15 -1 -16 -2z"/>
<path d="M4835 3640 c0 -55 3 -100 7 -100 9 0 14 70 10 143 -6 94 -18 65 -17
-43z"/>
<path d="M5058 3713 c-2 -16 -1 -49 0 -75 3 -37 8 -48 21 -48 14 0 17 11 17
75 0 64 -3 75 -17 75 -12 0 -19 -9 -21 -27z"/>
<path d="M5877 3678 c1 -35 2 -69 2 -75 1 -7 8 -13 16 -13 12 0 15 15 15 75 0
65 -2 75 -17 75 -15 0 -18 -9 -16 -62z"/>
<path d="M5998 3733 c-2 -5 -3 -37 -3 -73 0 -53 4 -65 18 -68 15 -3 17 6 17
72 0 60 -3 76 -14 76 -8 0 -16 -3 -18 -7z"/>
<path d="M5540 3716 c0 -8 -6 -17 -12 -20 -10 -5 -10 -7 0 -12 6 -3 12 -18 12
-34 0 -46 10 -60 41 -60 33 0 39 15 10 23 -25 6 -23 60 3 65 20 4 22 22 2 22
-8 0 -16 7 -20 15 -7 19 -36 20 -36 1z"/>
<path d="M2716 3684 c-21 -20 -20 -58 0 -79 19 -19 85 -17 92 2 2 9 -5 11 -25
7 -20 -4 -33 -1 -42 10 -12 14 -8 16 33 16 50 0 54 4 30 38 -18 26 -65 30 -88
6z m59 -14 c3 -5 -3 -10 -14 -10 -12 0 -21 5 -21 10 0 6 6 10 14 10 8 0 18 -4
21 -10z"/>
<path d="M2901 3686 c-19 -23 -6 -45 29 -52 16 -4 27 -11 24 -16 -4 -6 -19 -7
-35 -4 -30 6 -40 -8 -13 -18 27 -11 61 -7 74 9 18 22 5 45 -30 51 -16 4 -30
11 -30 17 0 5 13 7 31 3 22 -4 29 -2 27 7 -7 18 -63 21 -77 3z"/>
<path d="M3069 3691 c0 -6 -1 -24 -1 -41 0 -54 2 -60 17 -60 11 0 15 12 15 45
0 25 0 48 1 53 0 4 -7 8 -15 10 -9 2 -16 -1 -17 -7z"/>
<path d="M3194 3683 c-34 -34 -3 -100 42 -89 13 4 24 2 24 -3 0 -13 -30 -22
-51 -16 -23 8 -26 -10 -3 -19 57 -22 87 6 90 82 l2 60 -45 -1 c-24 0 -51 -7
-59 -14z m64 -32 c2 -13 -1 -28 -8 -35 -16 -15 -40 18 -33 45 7 27 37 20 41
-10z"/>
<path d="M3379 3696 c0 -1 -1 -25 -2 -54 -2 -44 1 -52 16 -52 12 0 17 8 17 29
0 39 9 61 26 61 10 0 14 -13 14 -45 0 -38 3 -45 19 -45 15 0 19 7 19 38 0 58
-11 70 -63 70 -25 -1 -45 -2 -46 -2z"/>
<path d="M4160 3690 c0 -5 14 -10 30 -10 17 0 30 -4 30 -10 0 -5 -9 -10 -19
-10 -34 0 -51 -12 -51 -35 0 -26 15 -33 73 -34 l37 0 0 44 c0 34 -5 47 -19 55
-25 13 -81 13 -81 0z m60 -65 c0 -8 -6 -15 -14 -15 -17 0 -28 14 -19 24 12 12
33 6 33 -9z"/>
<path d="M4536 3685 c-39 -39 -4 -99 55 -93 18 2 34 9 37 16 3 9 -3 11 -22 6
-16 -4 -33 -1 -43 7 -14 12 -11 15 30 19 46 5 46 5 34 30 -15 31 -66 39 -91
15z m59 -15 c3 -5 -3 -10 -14 -10 -12 0 -21 5 -21 10 0 6 6 10 14 10 8 0 18
-4 21 -10z"/>
<path d="M5179 3688 c0 -4 -1 -21 -1 -38 0 -54 2 -60 16 -60 10 0 16 14 18 42
2 31 8 44 21 46 14 3 17 -4 17 -42 0 -39 3 -46 19 -46 15 0 19 7 19 38 0 58
-11 70 -63 70 -25 -1 -45 -5 -46 -10z"/>
<path d="M5372 3688 c-21 -21 -13 -38 23 -54 19 -8 35 -17 35 -20 0 -4 -16 -4
-35 -1 -35 6 -48 -6 -19 -17 27 -11 61 -7 74 9 18 22 5 45 -30 51 -39 8 -39
28 0 22 19 -3 29 -1 27 6 -5 16 -60 19 -75 4z"/>
<path d="M5690 3690 c0 -5 14 -10 30 -10 17 0 30 -4 30 -10 0 -5 -10 -10 -23
-10 -28 0 -47 -17 -47 -42 0 -23 45 -35 67 -17 12 10 15 10 9 2 -5 -9 0 -13
13 -13 18 0 21 6 21 45 0 34 -5 47 -19 55 -25 13 -81 13 -81 0z m60 -59 c0
-14 -18 -23 -30 -16 -6 4 -8 11 -5 16 8 12 35 12 35 0z"/>
</g>
</svg>
